<?xml version="1.0" encoding="UTF-8" standalone="no"?>
<svg
   xmlns:dc="http://purl.org/dc/elements/1.1/"
   xmlns:cc="http://creativecommons.org/ns#"
   xmlns:rdf="http://www.w3.org/1999/02/22-rdf-syntax-ns#"
   xmlns:svg="http://www.w3.org/2000/svg"
   xmlns="http://www.w3.org/2000/svg"
   xml:space="preserve"
   enable-background="new 0 0 1200 1200"
   viewBox="0 0 1099.9985 908.86963"
   height="908.86963"
   width="1099.9985"
   y="0px"
   x="0px"
   id="Layer_1"
   version="1.1"><metadata
   id="metadata21"><rdf:RDF><cc:Work
       rdf:about=""><dc:format>image/svg+xml</dc:format><dc:type
         rdf:resource="http://purl.org/dc/dcmitype/StillImage" /><dc:title></dc:title></cc:Work></rdf:RDF></metadata><defs
   id="defs19" />
<g
   transform="translate(-50.001501,-145.56674)"
   style="fill:#ffffff"
   id="g14">
	<path
   style="fill:#ffffff"
   id="path2"
   d="m 208.229,590.445 c 0.206,0.285 0.461,0.564 0.784,0.829 0,0 -0.284,-0.299 -0.784,-0.829 z" />
	<path
   style="fill:#ffffff"
   id="path4"
   d="m 1145.728,757.475 c 0.49,-4.497 0.411,-7.697 -0.019,-9.995 0.136,6.233 0.019,9.995 0.019,9.995 z" />
	<path
   style="fill:#ffffff"
   id="path6"
   d="m 1096.491,716.792 c -0.432,-2.763 -0.734,-5.527 -0.941,-8.309 -0.118,4.806 0.941,8.309 0.941,8.309 z" />
	<path
   style="fill:#ffffff"
   id="path8"
   d="m 1147.286,696.95 c 2.215,9.779 2.665,13.786 2.704,14.394 -0.558,-6.913 -1.548,-11.454 -2.704,-14.394 z" />
	<path
   style="fill:#ffffff"
   id="path10"
   d="m 1149.99,711.345 c 0.01,0.039 0.01,0.068 0.01,0.092 0,0 0,-0.039 -0.01,-0.092 z" />
	<path
   style="fill:#ffffff"
   id="path12"
   d="m 1147.286,696.95 c -2.214,-9.74 -6.193,-25.177 -13.336,-48.669 -14.991,-49.247 -7.496,-32.12 -19.254,-77.079 -8.31,-31.669 -9.701,-73.391 -15.805,-100.929 8.338,-45.661 -10.671,-58.301 -20.342,-72.499 -12.042,-17.666 -52.177,-35.333 -78.692,-45.763 -26.485,-10.445 -39.35,-14.457 -69.843,-21.68 -30.512,-7.231 -48.189,3.21 -78.692,-3.214 -30.512,-6.428 -85.913,-7.226 -105.98,-8.834 -20.067,-1.611 -28.905,-6.423 -50.58,-16.055 -21.674,-9.641 -81.906,-39.345 -101.983,-47.37 -20.067,-8.03 -70.647,-11.244 -87.5,-12.042 -16.873,-0.809 -39.35,0 -61.818,-5.63 -22.477,-5.614 -40.154,13.655 -40.154,13.655 -4.831,-29.71 -61.016,-20.072 -61.016,-20.072 -4.83,-23.291 -65.042,-66.645 -65.042,-66.645 -22.468,-14.452 -12.042,1.607 -12.042,1.607 12.042,1.602 44.946,65.842 44.946,65.842 0,0 0,0 -3.351,-1.123 -0.97,-0.328 -2.224,-0.744 -3.851,-1.293 -7.221,-2.405 -20.9,6.429 -31.335,10.45 -10.436,4.008 -17.647,1.597 -17.647,1.597 -19.274,-11.239 -26.505,-8.838 -26.505,-8.838 -2.401,-4.008 -18.451,-9.622 -18.451,-9.622 -15.256,-6.429 -30.512,5.614 -30.512,5.614 -24.085,-16.858 -39.351,13.65 -39.351,13.65 -8.035,6.428 -23.291,5.62 -23.291,5.62 -27.278,-4.811 -28.102,-41.747 -28.102,-41.747 -2.4,-20.077 31.326,-52.187 31.326,-52.187 4.017,-3.214 3.214,-8.03 3.214,-8.03 -28.915,-2.415 -54.597,40.943 -54.597,40.943 -17.696,49.806 20.224,75.003 34.766,82.592 -15.492,-4.899 -52.432,-5.512 -52.432,-5.512 -1.597,15.252 56.194,47.376 56.194,47.376 -4.821,4.012 3.224,13.65 3.224,23.276 0,9.637 -8.045,14.453 -8.045,14.453 -9.622,10.445 -3.204,29.714 -4.811,42.555 -1.607,12.855 -1.607,48.977 -1.607,48.977 0,21.685 -4.016,28.906 -4.016,28.906 -12.033,2.41 5.624,32.125 5.624,32.125 -20.067,10.425 24.889,40.942 28.112,41.751 3.194,0.794 12.845,6.418 12.845,6.418 -4.027,13.64 21.675,39.341 21.675,39.341 0,-4.021 14.442,-10.445 20.88,-13.654 6.408,-3.209 13.65,-13.645 13.65,-13.645 -2.107,9.828 11.121,25.167 14.473,28.881 -2.802,-4.012 5.595,-9.612 5.595,-9.612 -2.41,32.12 52.167,47.371 52.167,47.371 -22.467,-16.06 -12.022,-63.426 -12.022,-63.426 2.41,56.998 47.376,70.657 47.376,70.657 -30.513,-12.052 -14.453,-53 -14.453,-53 l 10.436,1.612 c 0,0 6.408,13.649 10.435,17.661 4.017,4.017 14.452,8.025 21.675,12.851 7.24,4.811 7.24,13.644 15.256,16.858 8.025,3.205 20.086,16.06 20.086,16.06 16.853,53.794 73.861,52.182 73.861,52.182 0,10.44 31.316,84.302 20.881,105.187 -10.435,20.876 16.843,52.187 21.665,69.848 4.82,17.662 6.418,85.918 3.204,99.558 -3.204,13.654 4.821,13.654 -14.433,24.09 -19.274,10.435 -12.051,23.286 -12.051,23.286 -6.419,-0.804 -28.102,24.085 -28.102,24.085 -12.846,20.076 77.085,-0.794 77.085,-0.794 2.401,-5.635 15.246,-9.642 15.246,-9.642 6.692,-4.252 0.5,-17.231 -2.91,-23.3 0.177,0 0.313,0.024 0.52,0.024 6.418,0 9.621,-13.659 9.621,-13.659 0,0 0,0 -0.813,4.012 -0.794,4.013 12.052,4.816 12.052,4.816 7.231,-6.418 0.803,-40.145 -7.222,-62.623 -8.035,-22.483 -10.435,-98.753 -10.435,-98.753 5.605,-12.846 0,-41.752 1.587,-61.021 1.627,-19.274 11.259,-108.396 11.259,-108.396 5.614,-3.214 29.688,-4.007 53.793,-0.799 24.085,3.214 122.03,25.692 122.03,25.692 8.829,10.44 36.931,8.025 36.931,8.025 16.863,-3.219 109.213,-63.431 109.213,-63.431 0,7.231 28.906,35.323 32.1,51.393 3.215,16.055 29.72,65.027 34.531,76.266 4.82,11.249 7.24,10.436 8.828,23.291 1.607,12.846 4.821,13.65 8.035,28.102 3.214,14.452 -0.804,40.14 -4.026,64.234 -3.195,24.089 -20.862,73.062 -25.672,85.913 -4.831,12.84 -8.025,16.849 -20.871,27.288 -12.856,10.44 -10.455,19.274 -10.455,19.274 -6.419,-0.804 -24.085,20.875 -24.085,20.875 -18.47,23.286 58.625,4.821 58.625,4.821 l 2.391,-13.659 c -2.391,-17.657 12.855,-16.854 12.855,-16.854 18.46,12.042 19.263,-16.06 19.263,-16.06 -2.391,-25.686 54.597,-200.722 54.597,-200.722 9.642,-13.649 1.607,-33.726 1.607,-33.726 18.47,17.657 35.334,76.272 37.744,89.93 2.401,13.649 2.401,95.54 0,109.189 -2.41,13.65 1.587,19.269 -10.445,27.298 -12.052,8.03 -13.65,21.675 -13.65,21.675 -9.641,-0.799 -40.144,24.094 -40.144,24.094 -16.854,22.478 71.451,-0.803 71.451,-0.803 9.631,-1.607 8.837,-18.461 8.837,-18.461 -1.597,-8.039 4.821,-8.838 4.821,-8.838 32.922,5.619 19.274,-24.893 19.274,-24.893 -6.428,-15.256 4.026,-203.936 4.026,-203.936 11.22,-25.701 0,-30.517 -12.855,-42.55 -12.846,-12.047 -28.915,-46.567 -34.53,-64.234 -5.625,-17.666 -1.607,-44.161 -1.607,-44.161 19.274,-20.881 48.992,-120.434 48.992,-120.434 0.127,-0.421 0.294,-0.838 0.452,-1.259 10.25,36.455 20.018,86.438 16.128,136.146 0,0 -10.866,31.683 -8.427,63.416 0.069,-3.596 0.774,-7.903 3.067,-12.032 0,0 -1.068,43.892 3.204,66.375 0,0 11.778,21.41 15.011,38.542 0,0 31.032,-18.2 22.458,-58.883 0,0 5.027,-2.503 6.419,4.997 -0.236,-11.973 -1.47,-33.104 -6.419,-54.244 -0.01,10e-4 4.689,-4.664 7.991,3.714 z" />
</g>
</svg>